<?xml version="1.0" encoding="UTF-8"?>
<svg xmlns="http://www.w3.org/2000/svg" viewBox="0 0 512 512" width="512" height="512"><g id="_22-guarantee" data-name="22-guarantee"><g id="linear_color" data-name="linear color"><path d="M392,292H316V249c0-8.791,0-23.5-7.644-36.562C298.864,196.222,281.249,188,256,188a12,12,0,0,0-12,12v61.6l-21.483,34.91L196,313.831V304a12,12,0,0,0-12-12H104a12,12,0,0,0-12,12V496a12,12,0,0,0,12,12h80a11.978,11.978,0,0,0,10.246-5.778A43.714,43.714,0,0,0,216,508H376a35.973,35.973,0,0,0,30.151-55.635,37.017,37.017,0,0,0,3.314-2.92,35.948,35.948,0,0,0,4.686-45.08,37.017,37.017,0,0,0,3.314-2.92,35.957,35.957,0,0,0,1.35-49.432A36,36,0,0,0,392,292ZM172,484H116V316h56Zm212.5-3.525A11.959,11.959,0,0,1,376,484H216a20.023,20.023,0,0,1-20-20V342.5l43.562-28.448a12.15,12.15,0,0,0,5.262-7.99l21.4-34.768A12,12,0,0,0,268,265V212.9c21.979,3.739,24,18.617,24,36.1v55a12,12,0,0,0,12,12h88a12,12,0,0,1,0,24H368a12,12,0,0,0,0,24h24a12,12,0,0,1,0,24H368a12,12,0,0,0,0,24h16a12,12,0,0,1,0,24H368a12,12,0,0,0,0,24h8a12,12,0,0,1,8.5,20.475Z"/><circle cx="144" cy="465" r="12"/><path d="M207.674,106.421l-7.3,42.551a12,12,0,0,0,17.412,12.649L256,141.532l38.212,20.089c8.372,4.767,19.357-3.2,17.412-12.649l-7.3-42.551L335.24,76.287a12,12,0,0,0-6.65-20.468l-42.723-6.208L266.761,10.9a12,12,0,0,0-21.522,0L226.133,49.611,183.41,55.819a12,12,0,0,0-6.65,20.468Zm28.153-33.967a12,12,0,0,0,9.035-6.564L256,43.322,267.138,65.89a12,12,0,0,0,9.035,6.564l24.9,3.619L283.056,93.639a12,12,0,0,0-3.451,10.621l4.254,24.8-22.275-11.709a12,12,0,0,0-11.168,0l-22.275,11.709,4.254-24.8a12,12,0,0,0-3.451-10.621L210.923,76.073Z"/><path d="M503.034,182.392l-34.539-25.9,1.755-43.137a12,12,0,0,0-18.9-10.3L416.048,127.9l-40.483-15a12,12,0,0,0-15.636,14.787l12.719,41.256-26.774,33.867a12,12,0,0,0,9.232,19.441l43.166.651,23.936,35.93c5.114,8.213,18.516,6.441,21.342-2.773l13.959-40.853,41.567-11.661a12,12,0,0,0,3.958-21.154ZM444.952,193.8a12,12,0,0,0-8.114,7.674L428.7,225.291l-13.952-20.944A12,12,0,0,0,404.943,199l-25.163-.38,15.608-19.741a12,12,0,0,0,2.053-10.978l-7.414-24.048,23.6,8.744a12,12,0,0,0,11.076-1.44l20.58-14.483-1.023,25.145a12,12,0,0,0,4.791,10.088l20.134,15.1Z"/><path d="M156.894,222.252c9.646.168,15.458-12.073,9.232-19.441l-26.774-33.867,12.719-41.256A12,12,0,0,0,136.435,112.9l-40.483,15-35.3-24.845a12,12,0,0,0-18.9,10.3l1.755,43.137-34.539,25.9a12,12,0,0,0,3.958,21.154l41.567,11.661L68.45,256.06c2.826,9.216,16.229,10.984,21.342,2.773l23.936-35.93Zm-59.643-17.9L83.3,225.291l-8.137-23.813a12,12,0,0,0-8.114-7.674l-24.231-6.8,20.134-15.1a12,12,0,0,0,4.791-10.088l-1.023-25.145L87.3,151.158a12,12,0,0,0,11.076,1.44l23.6-8.744L114.559,167.9a12,12,0,0,0,2.053,10.978l15.608,19.741-25.163.38A12,12,0,0,0,97.251,204.347Z"/></g></g></svg>
