<svg height="512pt" viewBox="0 0 512 512" width="512pt" xmlns="http://www.w3.org/2000/svg"><path d="m136 126c5.519531 0 10-4.480469 10-10s-4.480469-10-10-10-10 4.480469-10 10 4.480469 10 10 10zm0 0"/><path d="m136 166c5.519531 0 10-4.480469 10-10s-4.480469-10-10-10-10 4.480469-10 10 4.480469 10 10 10zm0 0"/><path d="m10 512h180c5.523438 0 10-4.476562 10-10v-10c0-42.785156-26.648438-78.445312-62.882812-92.910156 13.921874-10.996094 22.882812-28.011719 22.882812-47.089844 0-33.085938-26.914062-60-60-60s-60 26.914062-60 60c0 19.101562 8.980469 36.128906 22.929688 47.128906-36.839844 14.753906-62.929688 50.820313-62.929688 92.871094v10c0 5.523438 4.476562 10 10 10zm50-160c0-22.054688 17.945312-40 40-40s40 17.945312 40 40-17.945312 40-40 40-40-17.945312-40-40zm40 60c44.207031 0 80 35.757812 80 80h-160c0-44.113281 35.886719-80 80-80zm0 0"/><path d="m512 502v-10c0-42.785156-26.648438-78.445312-62.882812-92.910156 13.921874-10.996094 22.882812-28.011719 22.882812-47.089844 0-33.085938-26.914062-60-60-60s-60 26.914062-60 60c0 19.101562 8.980469 36.128906 22.929688 47.128906-36.839844 14.753906-62.929688 50.820313-62.929688 92.871094v10c0 5.523438 4.476562 10 10 10h180c5.523438 0 10-4.476562 10-10zm-140-150c0-22.054688 17.945312-40 40-40s40 17.945312 40 40-17.945312 40-40 40-40-17.945312-40-40zm-40 140c0-44.113281 35.886719-80 80-80 44.207031 0 80 35.757812 80 80zm0 0"/><path d="m111.558594 271.339844c3.371094 1.671875 7.441406 1.320312 10.496094-1l58.316406-44.339844h155.628906c5.523438 0 10-4.476562 10-10v-30h7.109375l57.371094 37.960938c3.078125 2.03125 7.015625 2.210937 10.253906.46875 3.242187-1.742188 5.265625-5.128907 5.265625-8.808594v-30.621094h29c5.523438 0 10-4.476562 10-10v-165c0-5.523438-4.476562-10-10-10h-260c-5.523438 0-10 4.476562-10 10v36h-109c-5.523438 0-10 4.476562-10 10v161c0 5.523438 4.476562 10 10 10h30v35.378906c0 3.800782 2.152344 7.269532 5.558594 8.960938zm93.441406-251.339844h240v145h-29c-5.523438 0-10 4.476562-10 10v22.011719l-44.363281-29.351563c-1.636719-1.082031-3.554688-1.660156-5.515625-1.660156h-10.121094v-41h49.941406c5.523438 0 10-4.476562 10-10s-4.476562-10-10-10h-49.941406v-20h49.820312c5.523438 0 10-4.476562 10-10s-4.476562-10-10-10h-51.890624c-4.386719-11.183594-15.3125-19-28.070313-19-.03125 0-.0625 0-.089844 0h-110.769531zm-119 187v-141h229.796875.03125c5.589844 0 9.992187 4.628906 9.992187 9 0 .636719.066407 1.261719.179688 1.863281v129.136719h-149c-2.1875 0-4.3125.71875-6.054688 2.039062l-44.945312 34.175782v-25.214844c0-5.523438-4.476562-10-10-10zm0 0"/><path d="m176 126h100c5.523438 0 10-4.476562 10-10s-4.476562-10-10-10h-100c-5.523438 0-10 4.476562-10 10s4.476562 10 10 10zm0 0"/><path d="m176 166h100c5.523438 0 10-4.476562 10-10s-4.476562-10-10-10h-100c-5.523438 0-10 4.476562-10 10s4.476562 10 10 10zm0 0"/></svg>