<?xml version="1.0" encoding="UTF-8"?>
<svg xmlns="http://www.w3.org/2000/svg" id="Icons" viewBox="0 0 60 60" width="512" height="512"><path d="M15,60H45a3,3,0,0,0,3-3V26.387l2.75.915a4.093,4.093,0,0,0,4.366-1.176l3.86-4.373a4.11,4.11,0,0,0,.029-5.382L48.943,4.715a6.984,6.984,0,0,0-3.4-2.165L36.762.079a2.105,2.105,0,0,0-1.569.173C34.774.478,33.432,1,30,1S25.225.478,24.807.252A2.106,2.106,0,0,0,23.238.079L14.459,2.55a6.985,6.985,0,0,0-3.4,2.165L.994,16.371a4.111,4.111,0,0,0,.03,5.383l3.861,4.373A4.1,4.1,0,0,0,9.248,27.3L12,26.388V57A3,3,0,0,0,15,60ZM34.952,2.474a4.972,4.972,0,0,1-9.9-.005A18.387,18.387,0,0,0,30,3,18.749,18.749,0,0,0,34.952,2.474ZM8.617,25.4a2.093,2.093,0,0,1-2.232-.6L2.524,20.431a2.1,2.1,0,0,1-.016-2.753L12.57,6.021A4.988,4.988,0,0,1,15,4.476l8.012-2.228a6.992,6.992,0,0,0,13.976-.027L45,4.476A4.987,4.987,0,0,1,47.43,6.021L57.491,17.678a2.1,2.1,0,0,1-.015,2.752L53.617,24.8a2.089,2.089,0,0,1-2.235.6L48,24.279V19a1,1,0,0,0-2,0V57a1,1,0,0,1-1,1H15a1,1,0,0,1-1-1V19a1,1,0,0,0-2,0v5.279Z"/><path d="M20,23V41a2,2,0,0,0,2,2H38a2,2,0,0,0,2-2V23a2,2,0,0,0-2-2H22A2,2,0,0,0,20,23Zm2,16.305,4.592-4.284a.08.08,0,0,1,.111.006L32.683,41H22ZM35.513,41l-3.491-3.487,2.668-2.491a.082.082,0,0,1,.114.006L38,38.216V41ZM38,35.392,36.209,33.6a2.09,2.09,0,0,0-2.882-.045L30.606,36.1l-2.489-2.485a2.071,2.071,0,0,0-2.889-.054L22,36.57V23H38Z"/><path d="M27,31a3,3,0,1,0-3-3A3,3,0,0,0,27,31Zm0-4a1,1,0,1,1-1,1A1,1,0,0,1,27,27Z"/><path d="M17,23a1,1,0,0,0,1-1V19h3a1,1,0,0,0,0-2H18a2,2,0,0,0-2,2v3A1,1,0,0,0,17,23Z"/><path d="M39,19h3v3a1,1,0,0,0,2,0V19a2,2,0,0,0-2-2H39a1,1,0,0,0,0,2Z"/><path d="M18,47h3a1,1,0,0,0,0-2H18V42a1,1,0,0,0-2,0v3A2,2,0,0,0,18,47Z"/><path d="M43,41a1,1,0,0,0-1,1v3H39a1,1,0,0,0,0,2h3a2,2,0,0,0,2-2V42A1,1,0,0,0,43,41Z"/></svg>
