<svg height="512" viewBox="0 0 60 60" width="512" xmlns="http://www.w3.org/2000/svg"><g id="Page-1" fill="none" fill-rule="evenodd"><g id="026---Open-Book" fill="rgb(0,0,0)" fill-rule="nonzero"><path id="Shape" d="m57 19v-10.92c.0020877-.68905442-.3538509-1.32974383-.94-1.692-.5930777-.36978726-1.33617-.40315058-1.96-.088l-1.1.547v-4.847c-.0004416-.66977291-.336116-1.29486329-.8942037-1.66517942-.5580877-.37031614-1.2644937-.43669267-1.8817963-.17682058-13.513 5.665-18.44 9.759-20.224 12.123-1.784-2.364-6.709-6.458-20.219-12.121-.61749885-.2619299-1.32518268-.19687617-1.88458081.17323982-.55939813.37011598-.89601483.99600542-.89641919 1.66676018v4.847l-1.107-.554c-.61956141-.30916391-1.35495803-.27587176-1.94405002.08800912s-.94806146 1.00657635-.94894998 1.69899088v10.92c-1.65685425 0-3 1.3431458-3 3v1c.00260366.740399.28064791 1.4533329.78 2-.49935209.5466671-.77739634 1.259601-.78 2v1c.00260366.740399.28064791 1.4533329.78 2-.49935209.5466671-.77739634 1.259601-.78 2v1c.00260366.740399.28064791 1.4533329.78 2-.49935209.5466671-.77739634 1.259601-.78 2v1c0 1.6568542 1.34314575 3 3 3v6.85c-.005029.756447.42203069 1.4494484 1.1 1.785l19.995 10c.280537.1433363.5909668.218374.906.219.2968355-.0060772.5884491-.079237.853-.214.3357984.2351801.7360373.3609096 1.146.36h6c.4092627-.0005866.8083918-.1273442 1.143-.363.5496874.2860155 1.2043126.2860155 1.754 0l19.98-9.99c.6893214-.332572 1.1261976-1.0316518 1.123-1.797v-6.85c1.6568542 0 3-1.3431458 3-3v-1c-.0026037-.740399-.2806479-1.4533329-.78-2 .4993521-.5466671.7773963-1.259601.78-2v-1c-.0026037-.740399-.2806479-1.4533329-.78-2 .4993521-.5466671.7773963-1.259601.78-2v-1c-.0026037-.740399-.2806479-1.4533329-.78-2 .4993521-.5466671.7773963-1.259601.78-2v-1c0-1.6568542-1.3431458-3-3-3zm1 3v1c0 .5522847-.4477153 1-1 1h-4.5c-.8284271 0-1.5-.6715729-1.5-1.5s.6715729-1.5 1.5-1.5h4.5c.5522847 0 1 .4477153 1 1zm0 5v1c0 .5522847-.4477153 1-1 1h-6.5c-.8284271 0-1.5-.6715729-1.5-1.5s.6715729-1.5 1.5-1.5h6.5c.5522847 0 1 .4477153 1 1zm0 5v1c0 .5522847-.4477153 1-1 1h-4.5c-.8284271 0-1.5-.6715729-1.5-1.5s.6715729-1.5 1.5-1.5h4.5c.5522847 0 1 .4477153 1 1zm-7-30v5.847l-16.9 8.453c-.012.006-.02.016-.032.022-.3178556-.2073142-.688523-.3190698-1.068-.322h-2v-1.437c.079-.315 1.533-4.821 20-12.563zm-42 0c18.989 7.961 19.989 12.5 20 12.5v1.5h-2c-.379999.0008668-.7517473.1108987-1.071.317-.012-.006-.02-.016-.032-.022l-16.897-8.448zm-7 20c0-.5522847.44771525-1 1-1h4.5c.82842712 0 1.5.6715729 1.5 1.5s-.67157288 1.5-1.5 1.5h-4.5c-.55228475 0-1-.4477153-1-1zm7 10.5c0 .8284271-.67157288 1.5-1.5 1.5h-4.5c-.55228475 0-1-.4477153-1-1v-1c0-.5522847.44771525-1 1-1h4.5c.82842712 0 1.5.6715729 1.5 1.5zm.5-3.5h-6.5c-.55228475 0-1-.4477153-1-1v-1c0-.5522847.44771525-1 1-1h6.5c.8284271 0 1.5.6715729 1.5 1.5s-.6715729 1.5-1.5 1.5zm-7.5 9v-1c0-.5522847.44771525-1 1-1h3.5c.82842712 0 1.5.6715729 1.5 1.5s-.67157288 1.5-1.5 1.5h-3.5c-.55228475 0-1-.4477153-1-1zm3 9.85v-6.85h1.5c1.31286889.0045623 2.5170913-.7284658 3.11602026-1.8967678.59892894-1.168302.49109834-2.5739529-.27902026-3.6372322 1.5962989-.9636465 2.1350088-3.0231589 1.215-4.645 1.4552529-.4512555 2.4472-1.7973884 2.4472-3.321s-.9919471-2.8697445-2.4472-3.321c.2896095-.5124932.4437972-1.090353.448-1.679 0-.9282577-.3687489-1.8184964-1.02512627-2.4748737-.65637732-.6563774-1.54661602-1.0251263-2.47487373-1.0251263h-2.5v-10.916l2.589 1.293.034.017 17.377 8.686v39.766zm22 10.15v-40h6v.08 39.92zm28-10.154-20 10v-39.763l17.37-8.683c.019-.008.035-.018.053-.027l2.577-1.293v10.92h-2.5c-1.9329966 0-3.5 1.5670034-3.5 3.5.0042028.588647.1583905 1.1665068.448 1.679-1.4552529.4512555-2.4472 1.7973884-2.4472 3.321s.9919471 2.8697445 2.4472 3.321c-.9200088 1.6218411-.3812989 3.6813535 1.215 4.645-.7701186 1.0632793-.8779492 2.4689302-.2790203 3.6372322.598929 1.168302 1.8031514 1.9013301 3.1160203 1.8967678h1.5zm3-9.846c0 .5522847-.4477153 1-1 1h-3.5c-.8284271 0-1.5-.6715729-1.5-1.5s.6715729-1.5 1.5-1.5h3.5c.5522847 0 1 .4477153 1 1z"/></g></g></svg>