<svg version="1.1" id="Capa_1" xmlns="http://www.w3.org/2000/svg" xmlns:xlink="http://www.w3.org/1999/xlink" x="0px" y="0px"
	 viewBox="0 0 511.998 511.998" style="enable-background:new 0 0 511.998 511.998;" xml:space="preserve">
<g>
	<g>
		<path d="M469.488,73.427l-37.165-8.261V38.99c0-4.161-3.374-7.535-7.535-7.535h-36.559l-5.264-24.579
			c-0.858-4.009-4.932-6.651-8.946-5.79L256.888,26.172L139.955,0.181c-4.064-0.904-8.088,1.659-8.991,5.721l-5.68,25.552H87.211
			c-4.161,0-7.535,3.374-7.535,7.535v25.136l-35.748,7.657c-4.01,0.859-6.649,4.931-5.79,8.946l37.39,174.577L36.79,429.587
			c-0.903,4.062,1.658,8.088,5.721,8.991l37.165,8.261v26.176c0,4.161,3.374,7.535,7.535,7.535h36.559l5.264,24.579
			c0.858,4.008,4.932,6.652,8.946,5.79c0,0,115.889-24.924,116.477-25.232l117.587,26.136c4.009,0.892,8.1-1.714,8.991-5.721
			l5.68-25.553h38.073c4.161,0,7.535-3.374,7.535-7.535v-25.136l35.748-7.657c4.009-0.859,6.65-4.931,5.79-8.946l-37.39-174.576
			l38.738-174.283C476.112,78.355,473.551,74.331,469.488,73.427z M79.676,431.401l-26.54-5.9l26.54-119.402V431.401z
			 M79.676,202.713L54.453,84.94l25.224-5.402V202.713z M369.807,17.4l3.01,14.055h-68.633L369.807,17.4z M144.04,16.528
			l67.157,14.927h-70.475L144.04,16.528z M142.192,494.606l-3.01-14.055h68.633L142.192,494.606z M367.959,495.478l-67.159-14.927
			h70.476L367.959,495.478z M417.252,465.481H94.747V46.525h322.505V465.481z M457.546,427.065l-25.224,5.402V309.292
			L457.546,427.065z M432.322,205.907V80.604l26.54,5.9L432.322,205.907z"/>
	</g>
</g>
<g>
	<g>
		<path d="M361.869,328.34l20.722-27.629c1.713-2.283,1.988-5.338,0.711-7.891c-1.276-2.553-3.885-4.165-6.739-4.165h-39.853
			c-4.161,0-7.535,3.374-7.535,7.535c0,4.161,3.374,7.535,7.535,7.535h24.783l-15.07,20.094c-2.009,2.68-2.009,6.363,0,9.042
			l15.07,20.094H150.507l15.07-20.094c2.009-2.68,2.009-6.363,0-9.042l-15.07-20.094H301.21c4.161,0,7.535-3.374,7.535-7.535
			c0-4.161-3.374-7.535-7.535-7.535H135.437c-6.08,0-9.685,7.181-6.028,12.056l20.722,27.629l-20.722,27.629
			c-3.657,4.876-0.053,12.056,6.028,12.056h241.126c6.08,0,9.685-7.181,6.028-12.056L361.869,328.34z"/>
	</g>
</g>
<g>
	<g>
		<path d="M352.45,385.105h-192.9c-4.161,0-7.535,3.374-7.535,7.535s3.374,7.535,7.535,7.535h192.9c4.161,0,7.535-3.374,7.535-7.535
			S356.611,385.105,352.45,385.105z"/>
	</g>
</g>
<g>
	<g>
		<path d="M352.45,417.255h-192.9c-4.161,0-7.535,3.374-7.535,7.535s3.374,7.535,7.535,7.535h192.9c4.161,0,7.535-3.374,7.535-7.535
			S356.611,417.255,352.45,417.255z"/>
	</g>
</g>
<g>
	<g>
		<path d="M333.512,89.077c-10.77-9.001-23.591-13.356-37.077-12.584c-13.43,0.766-27.007,6.482-40.436,17.01
			c-13.429-10.528-27.006-16.245-40.436-17.01c-13.48-0.77-26.308,3.583-37.077,12.584c-24.114,20.155-32.065,57.884-17.361,82.39
			c25.782,42.971,88.308,81.324,90.958,82.935c2.381,1.449,5.451,1.449,7.833,0c2.649-1.612,65.175-39.965,90.958-82.935
			C365.577,146.962,357.626,109.232,333.512,89.077z M337.951,163.713c-20.343,33.904-67.975,66.292-81.953,75.333
			c-13.974-9.033-61.581-41.386-81.95-75.333c-10.918-18.195-4.327-47.669,14.103-63.072c7.378-6.168,15.586-9.23,24.323-9.23
			c12.109,0,25.234,5.886,38.563,17.55c2.841,2.486,7.083,2.486,9.924,0c22.947-20.079,45.281-23.035,62.886-8.32
			C342.277,116.044,348.868,145.517,337.951,163.713z"/>
	</g>
</g>
<g>
</g>
<g>
</g>
<g>
</g>
<g>
</g>
<g>
</g>
<g>
</g>
<g>
</g>
<g>
</g>
<g>
</g>
<g>
</g>
<g>
</g>
<g>
</g>
<g>
</g>
<g>
</g>
<g>
</g>
</svg>
