
<svg
   version="1.1"
   id="svg129"
   xml:space="preserve"
   width="682.66669"
   height="682.66669"
   viewBox="0 0 682.66669 682.66669"
   xmlns="http://www.w3.org/2000/svg"
   xmlns:svg="http://www.w3.org/2000/svg"><defs
     id="defs133"><clipPath
       clipPathUnits="userSpaceOnUse"
       id="clipPath143"><path
         d="M 0,512 H 512 V 0 H 0 Z"
         id="path141" /></clipPath></defs><g
     id="g135"
     transform="matrix(1.3333333,0,0,-1.3333333,0,682.66667)"><g
       id="g137"><g
         id="g139"
         clip-path="url(#clipPath143)"><g
           id="g145"
           transform="translate(205.5874,502)"><path
             d="m 0,0 h 100.203 c 10.856,0 19.728,-8.872 19.728,-19.729 V -84.584 H -19.757 v 64.855 C -19.757,-8.872 -10.857,0 0,0 Z"
             style="fill:none;stroke:#000000;stroke-width:20;stroke-linecap:round;stroke-linejoin:round;stroke-miterlimit:10;stroke-dasharray:none;stroke-opacity:1"
             id="path147" /></g><g
           id="g149"
           transform="translate(325.5186,417.416)"><path
             d="M 0,0 -17.631,-52.412 H -122.057 L -139.688,0"
             style="fill:none;stroke:#000000;stroke-width:20;stroke-linecap:round;stroke-linejoin:round;stroke-miterlimit:10;stroke-dasharray:none;stroke-opacity:1"
             id="path151" /></g><g
           id="g153"
           transform="translate(231.4668,365.0044)"><path
             d="M 0,0 H 48.443 V -27.552 C 48.443,-40.875 37.53,-51.76 24.208,-51.76 10.885,-51.76 0,-40.875 0,-27.552 Z"
             style="fill:none;stroke:#000000;stroke-width:20;stroke-linecap:round;stroke-linejoin:round;stroke-miterlimit:10;stroke-dasharray:none;stroke-opacity:1"
             id="path155" /></g><g
           id="g157"
           transform="translate(185.8301,482.2715)"><path
             d="m 0,0 h -153.606 c -12.388,0 -22.536,-10.148 -22.536,-22.563 0,-12.416 10.148,-22.564 22.536,-22.564 H 0 m 139.688,0 h 153.607 c 12.415,0 22.563,10.148 22.563,22.564 C 315.858,-10.148 305.71,0 293.295,0 H 139.688"
             style="fill:none;stroke:#000000;stroke-width:20;stroke-linecap:round;stroke-linejoin:round;stroke-miterlimit:10;stroke-dasharray:none;stroke-opacity:1"
             id="path159" /></g><g
           id="g161"
           transform="translate(300.5742,56.6572)"><path
             d="m 0,0 h 201.114 v 45.354 h -492 V 0 H -89.8"
             style="fill:none;stroke:#000000;stroke-width:20;stroke-linecap:round;stroke-linejoin:round;stroke-miterlimit:10;stroke-dasharray:none;stroke-opacity:1"
             id="path163" /></g><g
           id="g165"
           transform="translate(288.272,211.6528)"><path
             d="M 0,0 H -109.642 V -109.642"
             style="fill:none;stroke:#000000;stroke-width:20;stroke-linecap:round;stroke-linejoin:round;stroke-miterlimit:10;stroke-dasharray:none;stroke-opacity:1"
             id="path167" /></g><g
           id="g169"
           transform="translate(332.7471,102.0107)"><path
             d="M 0,0 V 109.642 H -44.475 V 0"
             style="fill:none;stroke:#000000;stroke-width:20;stroke-linecap:round;stroke-linejoin:round;stroke-miterlimit:10;stroke-dasharray:none;stroke-opacity:1"
             id="path171" /></g><g
           id="g173"
           transform="translate(255.6743,313.2446)"><path
             d="m 0,0 v -17.036 c 0,-38.522 10.8,-84.556 59.328,-84.556"
             style="fill:none;stroke:#000000;stroke-width:20;stroke-linecap:round;stroke-linejoin:round;stroke-miterlimit:10;stroke-dasharray:none;stroke-opacity:1"
             id="path175" /></g><g
           id="g177"
           transform="translate(117.3462,56.6572)"><path
             d="M 0,0 V -46.657 H -91.5 V 0"
             style="fill:none;stroke:#000000;stroke-width:20;stroke-linecap:round;stroke-linejoin:round;stroke-miterlimit:10;stroke-dasharray:none;stroke-opacity:1"
             id="path179" /></g><g
           id="g181"
           transform="translate(394.0024,56.6572)"><path
             d="M 0,0 V -46.657 H 91.5 V 0"
             style="fill:none;stroke:#000000;stroke-width:20;stroke-linecap:round;stroke-linejoin:round;stroke-miterlimit:10;stroke-dasharray:none;stroke-opacity:1"
             id="path183" /></g><g
           id="g185"
           transform="translate(81.9707,102.0107)"><path
             d="m 0,0 v 335.134 m -42.916,0 V 0"
             style="fill:none;stroke:#000000;stroke-width:20;stroke-linecap:round;stroke-linejoin:round;stroke-miterlimit:10;stroke-dasharray:none;stroke-opacity:1"
             id="path187" /></g><g
           id="g189"
           transform="translate(429.3779,102.0107)"><path
             d="m 0,0 v 335.134 m 42.944,0 V 0"
             style="fill:none;stroke:#000000;stroke-width:20;stroke-linecap:round;stroke-linejoin:round;stroke-miterlimit:10;stroke-dasharray:none;stroke-opacity:1"
             id="path191" /></g><g
           id="g193"
           transform="translate(255.731,56.6572)"><path
             d="M 0,0 H -0.057"
             style="fill:none;stroke:#000000;stroke-width:20;stroke-linecap:round;stroke-linejoin:round;stroke-miterlimit:10;stroke-dasharray:none;stroke-opacity:1"
             id="path195" /></g></g></g></g></svg>
