<svg clip-rule="evenodd" fill-rule="evenodd" height="512" image-rendering="optimizeQuality" shape-rendering="geometricPrecision" text-rendering="geometricPrecision" viewBox="0 0 18062 18062" width="512" xmlns="http://www.w3.org/2000/svg"><g id="Layer_x0020_1"><path d="m3917 18057c-166 0-307-139-307-307v-6058c-1795-1115-2994-3105-2994-5370 0-3483 2834-6317 6317-6317s6317 2834 6317 6317c0 2265-1199 4255-2994 5370v6058c0 248-284 394-486 249l-2857-2046-2816 2045c-53 39-116 59-180 59zm9968-2913c-25-45-39-98-40-152v-14685c0-170 138-307 307-307h2987c170 0 307 137 307 307v14685c0 56-15 108-40 153l-1490 2756c-116 213-425 213-540 0zm2948-458v-10141h-881v10141zm-2374-10141v10141h880v-10141zm0-2064h2374v-1868h-2374zm0 1450h2374v-837h-2374zm208 11368 979 1811 979-1811zm-9299-3492c1021 287 2109 290 3130 0 2386-681 4138-2882 4138-5485 0-3145-2558-5703-5703-5703s-5703 2558-5703 5703c0 2603 1752 4804 4138 5485zm1098 815c-775-57-1539-259-2242-592v5118l2381-1730v-1384c0-169 137-307 306-307 170 0 307 138 307 307v1383l2424 1736v-5123c-986 468-2088 672-3176 592zm467-1318c-2747 0-4981-2235-4981-4982 0-2746 2234-4981 4981-4981s4981 2235 4981 4981c0 2747-2234 4982-4981 4982zm0-9350c-2408 0-4368 1960-4368 4368 0 2409 1960 4368 4368 4368s4368-1959 4368-4368c0-2408-1960-4368-4368-4368zm0 7648c-1808 0-3279-1471-3279-3280 0-169 137-306 306-306 170 0 307 137 307 306 0 1470 1196 2666 2666 2666 169 0 307 138 307 307s-138 307-307 307zm2973-2973c-170 0-307-137-307-307 0-1470-1196-2666-2666-2666-169 0-307-137-307-306 0-170 138-307 307-307 1808 0 3279 1471 3279 3279 0 170-137 307-306 307z"/></g></svg>